<?xml version="1.0" encoding="UTF-8" standalone="no"?>
<svg
   version="1.1"
   width="50pt"
   height="46pt"
   viewBox="0 0 50 46"
   id="svg7"
   xmlns:xlink="http://www.w3.org/1999/xlink"
   xmlns="http://www.w3.org/2000/svg"
   xmlns:svg="http://www.w3.org/2000/svg">
  <defs
     id="defs1">
    <clipPath
       id="clip_1">
      <path
         transform="matrix(1,0,0,-1,-148,668)"
         d="M0 0H612V792H0Z"
         id="path1" />
    </clipPath>
    <path
       id="font_2_3"
       d="M.31098939 .66244509V.69244387C.2619934 .69044497 .21299744 .6894531 .1639862 .6894531 .114990238 .6894531 .066986087 .69044497 .017990113 .69244387V.66244509L.06599426 .6594391C.11199951 .6564331 .116989139 .6484375 .116989139 .569397V-.016845704C.116989139-.100875858 .102996829-.12988281 .06298828-.12988281 .038986207-.12988281 .018997193-.12388611-.0040130617-.10987854L-.015014648-.1158905-.010009766-.19189453 .01399231-.19488526H.018997193C.053985597-.19488526 .11299133-.16088867 .1499939-.11387634 .19898987-.053863527 .21199036-.0038452149 .21199036 .11721802V.569397C.21199036 .6484375 .21699524 .6564331 .2630005 .6594391L.31098939 .66244509Z" />
    <path
       id="font_2_2"
       d="M.80999758-.0030059815V.026992798L.7619934 .02999878C.71598818 .03300476 .71099856 .041015626 .71099856 .12017822V.5695038C.71099856 .64845278 .71598818 .65644839 .7619934 .6594391L.80999758 .66244509V.69244387C.7609863 .69044497 .71199038 .6894531 .6629944 .6894531 .6139984 .6894531 .56599429 .69044497 .5169983 .69244387V.66244509L.5649872 .6594391C.61099246 .65644839 .6159973 .64845278 .6159973 .5695038V.39163209C.59498599 .39064027 .57398989 .38964845 .5329895 .38964845H.29899598C.2579956 .38964845 .23599243 .39064027 .21598816 .39163209V.5695038C.21598816 .64845278 .22099304 .65644839 .2669983 .6594391L.31498719 .66244509V.69244387C.2659912 .69044497 .21699524 .6894531 .16799927 .6894531 .11898804 .6894531 .070999149 .69044497 .021987915 .69244387V.66244509L.069992069 .6594391C.115997318 .65644839 .12098694 .64845278 .12098694 .5695038V.12017822C.12098694 .041015626 .115997318 .03300476 .069992069 .02999878L.021987915 .026992798V-.0030059815C.070999149-.0010070801 .11898804 0 .16799927 0 .21699524 0 .2659912-.0010070801 .31498719-.0030059815V.026992798L.2669983 .02999878C.22099304 .03300476 .21598816 .041015626 .21598816 .12017822V.3436432C.24299622 .3456421 .25898744 .3456421 .29899598 .3456421H.5329895C.57299807 .3456421 .58898928 .3456421 .6159973 .3436432V.12017822C.6159973 .041015626 .61099246 .03300476 .5649872 .02999878L.5169983 .026992798V-.0030059815C.56599429-.0010070801 .6139984 0 .6629944 0 .71199038 0 .7609863-.0010070801 .80999758-.0030059815Z" />
    <path
       id="font_2_1"
       d="M.7559967-.0030059815V.026992798L.7220001 .02999878C.69599917 .031982423 .68499758 .050949098 .6499939 .13175965L.4079895 .69955447H.37599183C.37599183 .69955447 .36499024 .6655426 .32699586 .58055117L.10598755 .07888794C.09298706 .049942018 .07398987 .031982423 .051986696 .02999878L.01499939 .026992798V-.0030059815C.050994874-.0010070801 .08799744 0 .12399292 0 .1639862 0 .20498657-.0010070801 .24499512-.0030059815V.026992798L.20799256 .02999878C.17298889 .032989503 .1599884 .03996277 .1599884 .05593872 .1599884 .06890869 .17399597 .111816409 .19499207 .16169739L.22299195 .22854615H.5109863L.5569916 .11380005C.57398989 .071899417 .5779877 .058929445 .5779877 .049942018 .5779877 .038970949 .56199648 .031982423 .5369873 .02999878L.48999024 .026992798V-.0030059815C.5359955-.0010070801 .58299258 0 .6289978 0 .67099 0 .71398928-.0010070801 .7559967-.0030059815M.49299623 .2685547H.23999024L.36698915 .5665436 .49299623 .2685547Z" />
    <path
       id="font_2_4"
       d="M.5799866 .53744509C.5799866 .6334381 .5019989 .69244387 .375 .69244387 .31799317 .69244387 .2619934 .6894531 .20498657 .6894531 .14399719 .6894531 .083999637 .69044497 .022994996 .69244387V.66244509L.067993167 .6594391C.11299133 .65644839 .12098694 .6434326 .12098694 .5693817V.12005615C.12098694 .041000368 .115997318 .032989503 .069992069 .02999878L.021987915 .026992798V-.0030059815C.070999149-.0010070801 .11898804 0 .16799927 0 .21699524 0 .2659912-.0010070801 .31498719-.0030059815V.026992798L.2669983 .02999878C.22099304 .032989503 .21598816 .041000368 .21598816 .12005615V.64242556C.25099183 .6504364 .27999879 .65444949 .31399537 .65444949 .42199708 .65444949 .47999574 .60440066 .47999574 .5093384 .47999574 .41926576 .4189911 .35621644 .33198548 .35621644 .31098939 .35621644 .29599 .35821534 .269989 .3662262L.27999879 .33021546C.3039856 .32521058 .31799317 .32421876 .33799745 .32421876 .47499085 .32421876 .5799866 .41726686 .5799866 .5373535V.53744509Z" />
  </defs>
  <g
     clip-path="url(#clip_1)"
     id="g7">
    <use
       data-text="J"
       xlink:href="#font_2_3"
       transform="matrix(24.7871,0,0,-24.7871,6.5899965,21.552979)"
       fill="#acc6e1"
       id="use1" />
    <use
       data-text="H"
       xlink:href="#font_2_2"
       transform="matrix(24.7871,0,0,-24.7871,14.844101,21.552979)"
       fill="#acc6e1"
       id="use2" />
    <use
       data-text="A"
       xlink:href="#font_2_1"
       transform="matrix(24.7871,0,0,-24.7871,11.072998,41.477968)"
       fill="#acc6e1"
       id="use3" />
    <use
       data-text="P"
       xlink:href="#font_2_4"
       transform="matrix(24.7871,0,0,-24.7871,30.35736,41.477968)"
       fill="#acc6e1"
       id="use4" />
    <path
       transform="matrix(1,0,0,-1,.7120056,1.0009766)"
       stroke-width=".398"
       stroke-linecap="butt"
       stroke-miterlimit="10"
       stroke-linejoin="miter"
       fill="none"
       stroke="#acc6e1"
       d="M0 0H49.196"
       id="path4" />
    <path
       transform="matrix(1,0,0,-1,.91200259,44.789979)"
       stroke-width=".398"
       stroke-linecap="butt"
       stroke-miterlimit="10"
       stroke-linejoin="miter"
       fill="none"
       stroke="#acc6e1"
       d="M0 0V43.789"
       id="path5" />
    <path
       transform="matrix(1,0,0,-1,49.709,44.789979)"
       stroke-width=".398"
       stroke-linecap="butt"
       stroke-miterlimit="10"
       stroke-linejoin="miter"
       fill="none"
       stroke="#acc6e1"
       d="M0 0V43.789"
       id="path6" />
    <path
       transform="matrix(1,0,0,-1,.7120056,44.789979)"
       stroke-width=".398"
       stroke-linecap="butt"
       stroke-miterlimit="10"
       stroke-linejoin="miter"
       fill="none"
       stroke="#acc6e1"
       d="M0 0H49.196"
       id="path7" />
  </g>
</svg>
