<svg xmlns="http://www.w3.org/2000/svg" xmlns:xlink="http://www.w3.org/1999/xlink" xmlns:inkscape="http://www.inkscape.org/namespaces/inkscape" version="1.1" width="46" height="12" viewBox="0 0 46 12">
<defs>
<clipPath id="clip_1">
<path transform="matrix(1,0,0,-1,-129,663)" d="M0 0H612V792H0Z"/>
</clipPath>
<path id="font_2_1" d="M.29499818 .71699526C.1499939 .6230011 .04798889 .46099855 .04798889 .25698854 .04798889 .070999149 .1539917-.117004398 .2919922-.20201111L.3039856-.18600464C.17199707-.08200073 .13398743 .038986207 .13398743 .2599945 .13398743 .48199464 .1749878 .5970001 .3039856 .70098879L.29499818 .71699526Z"/>
<path id="font_3_2" d="M.027999878 0H.6139984L.62098696 .18399048H.5519867L.5439911 .13699341C.54100039 .114990238 .5339966 .09700012 .5239868 .08198547 .5149994 .067993167 .5 .06098938 .47999574 .06098938H.27999879V.34298707H.5169983V.40299989H.27999879V.6529999H.44799806C.46899415 .6529999 .48399354 .6459961 .49398805 .6339874 .5029907 .6199951 .5089874 .60198977 .5119934 .57699587L.5169983 .5299988H.58699038L.58299258 .71398928H.027999878V.6609955H.069992069C.084991458 .6609955 .09700012 .6569977 .10598755 .6499939 .115997318 .6429901 .12098694 .625 .12098694 .59599307V.11299133C.12098694 .085998538 .115997318 .069992069 .10598755 .06298828 .09599304 .055999757 .083999637 .052993776 .069992069 .052993776H.027999878V0Z"/>
<path id="font_4_2" d="M-.018005372 0H.09599304L.23098755 .19799805 .3039856 0H.4249878L.43199159 .037994386H.41999818C.40299989 .037994386 .3909912 .041992189 .38198854 .049987794 .375 .057998659 .3659973 .07699585 .35598756 .102996829L.29299928 .2579956 .3880005 .37998963C.4019928 .39698792 .41299439 .4099884 .4229889 .4189911 .43299867 .42900086 .44198609 .43499757 .45098878 .43899537 .45999146 .44299317 .46998597 .44499208 .48199464 .44499208H.49299623L.5029907 .48199464H.3919983L.272995 .30099488 .20399475 .48199464H.084991458L.07699585 .44499208H.08898926C.10598755 .44499208 .11898804 .43998719 .12599182 .43199159 .13398743 .4229889 .14299011 .4059906 .1539917 .37998963L.21199036 .23899842 .09700012 .099990848C.08299255 .08299255 .070999149 .068984989 .06098938 .05999756 .050994874 .050994874 .041992189 .04499817 .033996583 .041992189 .024993897 .038986207 .015991211 .037994386 .0039978029 .037994386H-.008010864L-.018005372 0Z"/>
<path id="font_2_2" d="M.037994386 .71699526 .0289917 .70098879C.1579895 .5970001 .19898987 .48199464 .19898987 .2599945 .19898987 .038986207 .16099549-.08200073 .0289917-.18600464L.040985109-.20201111C.1789856-.117004398 .2849884 .070999149 .2849884 .25698854 .2849884 .46099855 .18299866 .6230011 .037994386 .71699526Z"/>
<path id="font_4_1" d="M.1769867-.21600342H.23098755L.27398683-.010009766C.32699586-.007003784 .37199403 .0029907227 .4099884 .021987915 .44599916 .040985109 .47799684 .06498718 .5 .09498596 .5219879 .125 .5389862 .15699768 .548996 .18998719 .55999758 .22299195 .5649872 .25498963 .5649872 .2869873 .5649872 .35099793 .5479889 .3999939 .5149994 .43399049 .48098756 .46598817 .43699647 .48599244 .38198854 .48999024L.4229889 .6839905H.36898805L.32798768 .48999024C.27598573 .4869995 .23098755 .47698976 .19400025 .45700074 .15699768 .43899537 .1269989 .4149933 .10499573 .38598634 .08299255 .35699464 .06599426 .32499696 .054992677 .29299928 .04399109 .25898744 .038986207 .22698975 .038986207 .19499207 .038986207 .13699341 .053985597 .09098816 .085998538 .053985597 .116989139 .016998291 .16299439-.0040130617 .22099304-.009002686L.1769867-.21600342M.22999573 .034988405C.19799805 .038986207 .17399597 .054992677 .15699768 .07899475 .13999939 .10398865 .12998963 .13699341 .12998963 .1769867 .12998963 .20199585 .13398743 .22898865 .13899231 .2579956 .14498902 .2869873 .1539917 .31498719 .16799927 .33999635 .18199158 .36698915 .20098877 .3889923 .22499085 .4079895 .24899292 .4269867 .27999879 .43798829 .31698609 .44198609L.22999573 .034988405M.28399659 .034988405 .37098695 .44198609C.4039917 .43798829 .42999269 .4229889 .44699098 .39898683 .46398927 .375 .47299195 .34098817 .47299195 .30099488 .47299195 .27598573 .46998597 .24899292 .46398927 .21998596 .45899964 .18998719 .44999696 .1619873 .43598939 .13598633 .42199708 .10998535 .40098573 .08699036 .37799073 .067993167 .35299684 .049987794 .32199098 .038986207 .28399659 .034988405Z"/>
<path id="font_3_1" d="M.15699768 .22799683H.22599793L.27799989 .71398928H.10398865L.15699768 .22799683M.19198609-.008010864C.21398926-.008010864 .23298645-.0020141602 .25 .009994507 .2659912 .020996094 .27398683 .041992189 .27398683 .07199097 .27398683 .102996829 .2659912 .12399292 .25 .1349945 .23298645 .1459961 .21398926 .1519928 .19198609 .1519928 .16899109 .1519928 .1499939 .1459961 .13398743 .1349945 .117996219 .12399292 .10998535 .102996829 .10998535 .07199097 .10998535 .041992189 .117996219 .020996094 .13398743 .009994507 .1499939-.0020141602 .16899109-.008010864 .19198609-.008010864Z"/>
</defs>
<g clip-path="url(#clip_1)">
<use data-text="(" xlink:href="#font_2_1" transform="matrix(11.9552,0,0,-11.9552,.011001587,8.752991)"/>
<use data-text="E" xlink:href="#font_3_2" transform="matrix(-10.7596,0,0,10.7596,11.496002,3.3740235)"/>
<use data-text="&#x1d465;" xlink:href="#font_4_2" transform="matrix(11.9552,0,0,-11.9552,11.496002,8.752991)"/>
<use data-text=")" xlink:href="#font_2_2" transform="matrix(11.9552,0,0,-11.9552,17.987687,8.752991)"/>
<path transform="matrix(1,0,0,-1,24.559006,8.752991)" d="M0 0H1.73V1.73H0Z"/>
<use data-text="&#x1d719;" xlink:href="#font_4_1" transform="matrix(11.9552,0,0,-11.9552,28.281998,8.752991)"/>
<use data-text="!" xlink:href="#font_3_1" transform="matrix(10.7596,0,0,-10.7596,35.516099,8.752991)"/>
<use data-text="&#x1d465;" xlink:href="#font_4_2" transform="matrix(11.9552,0,0,-11.9552,39.626268,8.752991)"/>
</g>
</svg>
