<svg xmlns="http://www.w3.org/2000/svg" xmlns:xlink="http://www.w3.org/1999/xlink" xmlns:inkscape="http://www.inkscape.org/namespaces/inkscape" version="1.1" width="179" height="12" viewBox="0 0 179 12">
<defs>
<clipPath id="clip_1">
<path transform="matrix(1,0,0,-1,-216,649)" d="M0 0H612V792H0Z"/>
</clipPath>
<path id="font_2_2" d="M.4249878 .20898438V.30497743H.1579895V.51397708H.06199646V0H.1579895V.20898438H.4249878Z"/>
<path id="font_3_1" d="M.29499818 .71699526C.1499939 .6230011 .04798889 .46099855 .04798889 .25698854 .04798889 .070999149 .1539917-.117004398 .2919922-.20201111L.3039856-.18600464C.17199707-.08200073 .13398743 .038986207 .13398743 .2599945 .13398743 .48199464 .1749878 .5970001 .3039856 .70098879L.29499818 .71699526Z"/>
<path id="font_4_2" d="M.027999878 0H.6139984L.62098696 .18399048H.5519867L.5439911 .13699341C.54100039 .114990238 .5339966 .09700012 .5239868 .08198547 .5149994 .067993167 .5 .06098938 .47999574 .06098938H.27999879V.34298707H.5169983V.40299989H.27999879V.6529999H.44799806C.46899415 .6529999 .48399354 .6459961 .49398805 .6339874 .5029907 .6199951 .5089874 .60198977 .5119934 .57699587L.5169983 .5299988H.58699038L.58299258 .71398928H.027999878V.6609955H.069992069C.084991458 .6609955 .09700012 .6569977 .10598755 .6499939 .115997318 .6429901 .12098694 .625 .12098694 .59599307V.11299133C.12098694 .085998538 .115997318 .069992069 .10598755 .06298828 .09599304 .055999757 .083999637 .052993776 .069992069 .052993776H.027999878V0Z"/>
<path id="font_5_2" d="M-.07400513-.21600342C-.042007448-.21600342-.012008667-.21000672 .0129852299-.19700623 .037994386-.18400574 .05899048-.16300965 .07699585-.13301087 .09498596-.102005008 .10998535-.060012819 .12199402-.007003784L.21499634 .43099977H.31599427L.32598878 .48199464H.22599793L.23799134 .5399933C.24499512 .5779877 .2539978 .60598757 .2659912 .625 .27799989 .6429901 .29599 .6519928 .31799317 .6519928 .33699037 .6519928 .34899903 .6429901 .35499574 .6259918 .36099244 .6100006 .3639984 .58999636 .3639984 .56799319 .3880005 .56799319 .40499879 .57199099 .4189911 .58200076 .43199159 .59199526 .43798829 .60598757 .43798829 .6259918 .43798829 .6459961 .42900086 .6619873 .40899659 .6749878 .3899994 .68699648 .36099244 .69299319 .32199098 .69299319 .27198792 .69299319 .23498535 .67900088 .20698548 .651001 .1789856 .6230011 .16099549 .58299258 .15098572 .5319977L.14099121 .48199464 .054992677 .46398927 .049987794 .43099977H.1309967L.036987306-.008010864C.022994996-.06800842 .008987427-.11100769-.007003784-.13600159-.024002076-.16101074-.04600525-.17401123-.07600403-.17401123-.08200073-.17401123-.0900116-.17300415-.09901428-.17100525-.10600281-.17001343-.11401367-.16801453-.118011478-.16700745L-.12600708-.2090149C-.120010379-.2110138-.11201477-.21200562-.103012088-.21400452-.0920105-.2150116-.08300781-.21600342-.07400513-.21600342Z"/>
<path id="font_3_2" d="M.037994386 .71699526 .0289917 .70098879C.1579895 .5970001 .19898987 .48199464 .19898987 .2599945 .19898987 .038986207 .16099549-.08200073 .0289917-.18600464L.040985109-.20201111C.1789856-.117004398 .2849884 .070999149 .2849884 .25698854 .2849884 .46099855 .18299866 .6230011 .037994386 .71699526Z"/>
<path id="font_5_3" d="M-.018005372 0H.09599304L.23098755 .19799805 .3039856 0H.4249878L.43199159 .037994386H.41999818C.40299989 .037994386 .3909912 .041992189 .38198854 .049987794 .375 .057998659 .3659973 .07699585 .35598756 .102996829L.29299928 .2579956 .3880005 .37998963C.4019928 .39698792 .41299439 .4099884 .4229889 .4189911 .43299867 .42900086 .44198609 .43499757 .45098878 .43899537 .45999146 .44299317 .46998597 .44499208 .48199464 .44499208H.49299623L.5029907 .48199464H.3919983L.272995 .30099488 .20399475 .48199464H.084991458L.07699585 .44499208H.08898926C.10598755 .44499208 .11898804 .43998719 .12599182 .43199159 .13398743 .4229889 .14299011 .4059906 .1539917 .37998963L.21199036 .23899842 .09700012 .099990848C.08299255 .08299255 .070999149 .068984989 .06098938 .05999756 .050994874 .050994874 .041992189 .04499817 .033996583 .041992189 .024993897 .038986207 .015991211 .037994386 .0039978029 .037994386H-.008010864L-.018005372 0Z"/>
<path id="font_5_5" d="M.026992798-.13900757C.07998657-.12400818 .117996219-.1000061 .13999939-.06800842 .16299439-.036010744 .1749878-.0010070801 .1749878 .037994386 .1749878 .06298828 .16799927 .08198547 .1539917 .09498596 .13999939 .10899353 .12399292 .115997318 .10499573 .115997318 .08799744 .115997318 .07499695 .11199951 .06298828 .102996829 .051986696 .09298706 .04699707 .07998657 .04699707 .06298828 .04699707 .04899597 .050994874 .038986207 .056991579 .03199768 .06298828 .024993897 .070999149 .017990113 .07899475 .01399231 .08799744 .009994507 .09700012 .004989624 .102996829 .0009918213 .10899353-.0030059815 .11199951-.011001587 .11199951-.020004273 .11199951-.055007936 .083999637-.08200073 .026992798-.10101318V-.13900757Z"/>
<path id="font_5_4" d="M-.06100464-.21600342C-.019012452-.21600342 .016998291-.2110138 .04899597-.2000122 .07998657-.18901062 .10699463-.17300415 .13198853-.15100098 .15699768-.12901306 .18299866-.10101318 .20698548-.06800842 .23199463-.035003663 .25898744 .004989624 .2889862 .050994874 .33699037 .12399292 .375 .19198609 .4039917 .25299073 .43299867 .31399537 .44699098 .36799623 .44699098 .4149933 .44699098 .43998719 .44198609 .45899964 .42999269 .47200013 .4189911 .4850006 .40499879 .48999024 .38598634 .48999024 .37199403 .48999024 .35899354 .4850006 .34599305 .47299195 .33399964 .46099855 .32798768 .44599916 .32798768 .42399598 .34498597 .42399598 .35699464 .41999818 .3619995 .40899659 .36898805 .3999939 .37199403 .3880005 .37199403 .375 .37199403 .34799195 .36698915 .31799317 .35598756 .28399659 .34498597 .2519989 .32998658 .21699524 .31098939 .18199158 .29299928 .1459961 .27198792 .10998535 .25 .07598877H.24798584C.24699402 .085998538 .24398804 .101989749 .23899842 .12199402 .23498535 .14199829 .22999573 .1619873 .22499085 .18399048 .21899414 .20599365 .21398926 .22399903 .20999146 .23899842L.13999939 .48199464H.0079956059L.0009918213 .44499208H.009994507C.026992798 .44499208 .039993287 .44099427 .049987794 .43399049 .05899048 .42799378 .066986087 .4149933 .07199097 .39698792L.19099427-.0010070801C.1769867-.018005372 .1619873-.036010744 .1459961-.056015016 .12799073-.07400513 .10899353-.0920105 .08799744-.10800171 .066986087-.12501526 .04399109-.13800049 .019989014-.14900208-.005004883-.15901184-.03201294-.16500855-.06201172-.16500855-.08100891-.16500855-.09500122-.16400147-.10600281-.16200257-.11601257-.15901184-.12501526-.15800476-.13200379-.15501404L-.14601135-.2000122C-.12200928-.2110138-.09300232-.21600342-.06100464-.21600342Z"/>
<path id="font_5_1" d="M.1769867-.21600342H.23098755L.27398683-.010009766C.32699586-.007003784 .37199403 .0029907227 .4099884 .021987915 .44599916 .040985109 .47799684 .06498718 .5 .09498596 .5219879 .125 .5389862 .15699768 .548996 .18998719 .55999758 .22299195 .5649872 .25498963 .5649872 .2869873 .5649872 .35099793 .5479889 .3999939 .5149994 .43399049 .48098756 .46598817 .43699647 .48599244 .38198854 .48999024L.4229889 .6839905H.36898805L.32798768 .48999024C.27598573 .4869995 .23098755 .47698976 .19400025 .45700074 .15699768 .43899537 .1269989 .4149933 .10499573 .38598634 .08299255 .35699464 .06599426 .32499696 .054992677 .29299928 .04399109 .25898744 .038986207 .22698975 .038986207 .19499207 .038986207 .13699341 .053985597 .09098816 .085998538 .053985597 .116989139 .016998291 .16299439-.0040130617 .22099304-.009002686L.1769867-.21600342M.22999573 .034988405C.19799805 .038986207 .17399597 .054992677 .15699768 .07899475 .13999939 .10398865 .12998963 .13699341 .12998963 .1769867 .12998963 .20199585 .13398743 .22898865 .13899231 .2579956 .14498902 .2869873 .1539917 .31498719 .16799927 .33999635 .18199158 .36698915 .20098877 .3889923 .22499085 .4079895 .24899292 .4269867 .27999879 .43798829 .31698609 .44198609L.22999573 .034988405M.28399659 .034988405 .37098695 .44198609C.4039917 .43798829 .42999269 .4229889 .44699098 .39898683 .46398927 .375 .47299195 .34098817 .47299195 .30099488 .47299195 .27598573 .46998597 .24899292 .46398927 .21998596 .45899964 .18998719 .44999696 .1619873 .43598939 .13598633 .42199708 .10998535 .40098573 .08699036 .37799073 .067993167 .35299684 .049987794 .32199098 .038986207 .28399659 .034988405Z"/>
<path id="font_2_1" d="M.6139984 .41796876V.5139618H.06199646V.41796876H.6139984M.6139984 .20898438V.30497743H.06199646V.20898438H.6139984M.6139984 0V.09599304H.06199646V0H.6139984Z"/>
<path id="font_4_1" d="M.15699768 .22799683H.22599793L.27799989 .71398928H.10398865L.15699768 .22799683M.19198609-.008010864C.21398926-.008010864 .23298645-.0020141602 .25 .009994507 .2659912 .020996094 .27398683 .041992189 .27398683 .07199097 .27398683 .102996829 .2659912 .12399292 .25 .1349945 .23298645 .1459961 .21398926 .1519928 .19198609 .1519928 .16899109 .1519928 .1499939 .1459961 .13398743 .1349945 .117996219 .12399292 .10998535 .102996829 .10998535 .07199097 .10998535 .041992189 .117996219 .020996094 .13398743 .009994507 .1499939-.0020141602 .16899109-.008010864 .19198609-.008010864Z"/>
</defs>
<g clip-path="url(#clip_1)">
<use data-text="&#x22a2;" xlink:href="#font_2_2" transform="matrix(5.9776,0,0,-11.9552,.09399414,9.198975)"/>
<path transform="matrix(1,0,0,-1,4.996994,5.077975)" d="M0 0H1.73V1.73H0Z"/>
<path transform="matrix(1,0,0,-1,4.996994,9.198975)" d="M0 0H1.73V1.73H0Z"/>
<path transform="matrix(1,0,0,-1,7.7239944,9.198975)" d="M0 0H1.73V1.73H0Z"/>
<use data-text="(" xlink:href="#font_3_1" transform="matrix(11.9552,0,0,-11.9552,12.044006,9.198975)"/>
<use data-text="E" xlink:href="#font_4_2" transform="matrix(-10.7596,0,0,10.7596,23.529999,3.8189698)"/>
<use data-text="&#x1d453;" xlink:href="#font_5_2" transform="matrix(11.9552,0,0,-11.9552,25.084,9.198975)"/>
<use data-text=")" xlink:href="#font_3_2" transform="matrix(11.9552,0,0,-11.9552,30.559479,9.198975)"/>
<path transform="matrix(1,0,0,-1,37.130006,5.078003)" d="M0 0H1.73V1.73H0Z"/>
<path transform="matrix(1,0,0,-1,37.130006,9.198975)" d="M0 0H1.73V1.73H0Z"/>
<path transform="matrix(1,0,0,-1,39.856996,9.198975)" d="M0 0H1.73V1.73H0Z"/>
<use data-text="(" xlink:href="#font_3_1" transform="matrix(11.9552,0,0,-11.9552,44.177003,9.198975)"/>
<use data-text="&#x1d465;" xlink:href="#font_5_3" transform="matrix(11.9552,0,0,-11.9552,48.63629,9.198975)"/>
<use data-text="," xlink:href="#font_5_5" transform="matrix(11.9552,0,0,-11.9552,55.12796,9.198975)"/>
<use data-text="&#x1d466;" xlink:href="#font_5_4" transform="matrix(11.9552,0,0,-11.9552,61.595705,9.198975)"/>
<use data-text=")" xlink:href="#font_3_2" transform="matrix(11.9552,0,0,-11.9552,67.64502,9.198975)"/>
<path transform="matrix(1,0,0,-1,74.212009,5.078003)" d="M0 0H1.73V1.73H0Z"/>
<path transform="matrix(1,0,0,-1,74.212009,9.198975)" d="M0 0H1.73V1.73H0Z"/>
<use data-text="&#x1d719;" xlink:href="#font_5_1" transform="matrix(11.9552,0,0,-11.9552,77.935,9.198975)"/>
<use data-text="(" xlink:href="#font_3_1" transform="matrix(11.9552,0,0,-11.9552,85.77759,9.198975)"/>
<use data-text="&#x1d465;" xlink:href="#font_5_3" transform="matrix(11.9552,0,0,-11.9552,90.23688,9.198975)"/>
<use data-text="," xlink:href="#font_5_5" transform="matrix(11.9552,0,0,-11.9552,96.728549,9.198975)"/>
<use data-text="&#x1d466;" xlink:href="#font_5_4" transform="matrix(11.9552,0,0,-11.9552,103.19629,9.198975)"/>
<use data-text=")" xlink:href="#font_3_2" transform="matrix(11.9552,0,0,-11.9552,109.23364,9.198975)"/>
<path transform="matrix(1,0,0,-1,115.80701,9.198975)" d="M0 0H1.73V1.73H0Z"/>
<use data-text="&#x2261;" xlink:href="#font_2_1" transform="matrix(11.9552,0,0,-11.9552,120.194,9.198975)"/>
<use data-text="&#x2261;" xlink:href="#font_2_1" transform="matrix(11.9552,0,0,-11.9552,120.194,9.198975)"/>
<use data-text="&#x2261;" xlink:href="#font_2_1" transform="matrix(11.9552,0,0,-11.9552,120.194,9.198975)"/>
<path transform="matrix(1,0,0,-1,130.932,9.198975)" d="M0 0H1.73V1.73H0Z"/>
<use data-text="&#x1d453;" xlink:href="#font_5_2" transform="matrix(11.9552,0,0,-11.9552,136.20902,9.198975)"/>
<use data-text="!" xlink:href="#font_4_1" transform="matrix(10.7596,0,0,-10.7596,141.68329,9.198975)"/>
<use data-text="(" xlink:href="#font_3_1" transform="matrix(11.9552,0,0,-11.9552,146.3912,9.198975)"/>
<use data-text="&#x1d465;" xlink:href="#font_5_3" transform="matrix(11.9552,0,0,-11.9552,150.8505,9.198975)"/>
<use data-text="," xlink:href="#font_5_5" transform="matrix(11.9552,0,0,-11.9552,157.34217,9.198975)"/>
<use data-text="&#x1d466;" xlink:href="#font_5_4" transform="matrix(11.9552,0,0,-11.9552,163.8099,9.198975)"/>
<use data-text=")" xlink:href="#font_3_2" transform="matrix(11.9552,0,0,-11.9552,169.85923,9.198975)"/>
<path transform="matrix(1,0,0,-1,176.42801,9.198975)" d="M0 0H1.73V1.73H0Z"/>
</g>
</svg>
